<?xml version="1.0" encoding="UTF-8" standalone="no"?>
<!-- Created with Inkscape (http://www.inkscape.org/) -->

<svg
   xmlns:dc="http://purl.org/dc/elements/1.1/"
   xmlns:cc="http://creativecommons.org/ns#"
   xmlns:rdf="http://www.w3.org/1999/02/22-rdf-syntax-ns#"
   xmlns:svg="http://www.w3.org/2000/svg"
   xmlns="http://www.w3.org/2000/svg"
   version="1.1"
   width="744.09448"
   height="1052.3622"
   id="svg14081">
  <defs
     id="defs14083" />
  <metadata
     id="metadata14086">
    <rdf:RDF>
      <cc:Work
         rdf:about="">
        <dc:format>image/svg+xml</dc:format>
        <dc:type
           rdf:resource="http://purl.org/dc/dcmitype/StillImage" />
        <dc:title></dc:title>
      </cc:Work>
    </rdf:RDF>
  </metadata>
  <g
     id="layer1">
    <g
       transform="translate(5904.4041,940.76218)"
       id="g11427">
      <g
         id="g11429">
        <path
           d="m -5521.7,-400.6 h -15.4 c -1.5,0 -2.8,-1.2 -2.8,-2.8 v -10 c 0,-1.5 1.2,-2.8 2.8,-2.8 h 15.4 c 1.5,0 2.8,1.2 2.8,2.8 v 10 c 0,1.6 -1.3,2.8 -2.8,2.8 z m -15.4,-13 c -0.1,0 -0.3,0.1 -0.3,0.3 v 10 c 0,0.1 0.1,0.3 0.3,0.3 h 15.4 c 0.1,0 0.3,-0.1 0.3,-0.3 v -10 c 0,-0.1 -0.1,-0.3 -0.3,-0.3 h -15.4 z"
           id="path11431"
           style="fill:#8c8c8c" />
      </g>
      <g
         id="g11433">
        <path
           d="m -5529.4,-407.1 c -0.2,0 -0.5,-0.1 -0.7,-0.2 l -9.2,-5.7 c -0.6,-0.4 -0.8,-1.1 -0.4,-1.7 0.4,-0.6 1.1,-0.8 1.7,-0.4 l 8.5,5.3 7.7,-5.2 c 0.6,-0.4 1.4,-0.2 1.8,0.3 0.4,0.6 0.2,1.4 -0.3,1.8 l -8.4,5.7 c -0.2,0 -0.4,0.1 -0.7,0.1 z"
           id="path11435"
           style="fill:#8c8c8c" />
      </g>
    </g>
  </g>
</svg>
