<?xml version="1.0" encoding="UTF-8" standalone="no"?>
<!-- Created with Inkscape (http://www.inkscape.org/) -->

<svg
   xmlns:dc="http://purl.org/dc/elements/1.1/"
   xmlns:cc="http://creativecommons.org/ns#"
   xmlns:rdf="http://www.w3.org/1999/02/22-rdf-syntax-ns#"
   xmlns:svg="http://www.w3.org/2000/svg"
   xmlns="http://www.w3.org/2000/svg"
   version="1.1"
   width="744.09448"
   height="1052.3622"
   id="svg3644">
  <defs
     id="defs3646">
    <clipPath
       id="clipPath3900">
      <path
         d="m 0,1393.76 320.259,0 L 320.259,0 0,0 0,1393.76 z"
         id="path3902" />
    </clipPath>
    <clipPath
       id="clipPath3900-6">
      <path
         d="m 0,1393.76 320.259,0 L 320.259,0 0,0 0,1393.76 z"
         id="path3902-5" />
    </clipPath>
  </defs>
  <metadata
     id="metadata3649">
    <rdf:RDF>
      <cc:Work
         rdf:about="">
        <dc:format>image/svg+xml</dc:format>
        <dc:type
           rdf:resource="http://purl.org/dc/dcmitype/StillImage" />
        <dc:title></dc:title>
      </cc:Work>
    </rdf:RDF>
  </metadata>
  <g
     id="layer1">
    <g
       transform="matrix(1.25,0,0,-1.25,402.48686,1941.2658)"
       id="g3896">
      <g
         clip-path="url(#clipPath3900-6)"
         id="g3898"
         style="fill:#5fa9dd;fill-opacity:1">
        <g
           transform="translate(85.8779,1020.6611)"
           id="g3904"
           style="fill:#5fa9dd;fill-opacity:1">
          <path
             d="m 0,0 c -0.831,-0.369 -1.722,-0.617 -2.659,-0.729 0.956,0.574 1.691,1.479 2.035,2.561 -0.894,-0.531 -1.884,-0.916 -2.939,-1.123 -0.844,0.9 -2.047,1.462 -3.379,1.462 -2.556,0 -4.628,-2.072 -4.628,-4.63 0,-0.362 0.04,-0.715 0.119,-1.055 -3.847,0.194 -7.258,2.036 -9.542,4.837 -0.398,-0.682 -0.627,-1.478 -0.627,-2.326 0,-1.608 0.818,-3.024 2.059,-3.854 -0.759,0.024 -1.472,0.232 -2.096,0.578 l 0,-0.057 c 0,-2.244 1.595,-4.113 3.713,-4.539 -0.388,-0.106 -0.797,-0.162 -1.22,-0.162 -0.297,0 -0.587,0.028 -0.87,0.082 0.588,-1.838 2.298,-3.177 4.324,-3.215 -1.584,-1.241 -3.581,-1.981 -5.748,-1.981 -0.375,0 -0.743,0.021 -1.105,0.065 2.049,-1.314 4.481,-2.08 7.096,-2.08 8.514,0 13.171,7.053 13.171,13.17 0,0.202 -0.004,0.401 -0.014,0.6 C -1.405,-1.744 -0.621,-0.929 0,0"
             id="path3906"
             style="fill:#5fa9dd;fill-opacity:1;fill-rule:nonzero;stroke:none" />
        </g>
      </g>
    </g>
  </g>
</svg>
