<!-- Generator: Adobe Illustrator 17.1.0, SVG Export Plug-In  -->
<svg version="1.1"
	 xmlns="http://www.w3.org/2000/svg" xmlns:xlink="http://www.w3.org/1999/xlink" xmlns:a="http://ns.adobe.com/AdobeSVGViewerExtensions/3.0/"
	 x="0px" y="0px" width="17.9px" height="23.9px" viewBox="0 0 17.9 23.9" style="enable-background:new 0 0 17.9 23.9;"
	 xml:space="preserve">
<defs>
</defs>
<g>
	<path style="fill:#8C8C8C;" d="M17.9,22.4c0,0.8-0.7,1.5-1.5,1.5H1.5c-0.8,0-1.5-0.7-1.5-1.5V11.3c0-0.8,0.7-1.5,1.5-1.5h14.9
		c0.8,0,1.5,0.7,1.5,1.5V22.4z"/>
	<g>
		<path style="fill:#8C8C8C;" d="M10.8,18.4H7.1c-3,0-5.5-2.5-5.5-5.5V5.5c0-3,2.5-5.5,5.5-5.5h3.7c3,0,5.5,2.5,5.5,5.5V13
			C16.3,16,13.8,18.4,10.8,18.4z M7.1,2.5c-1.6,0-3,1.3-3,3V13c0,1.6,1.3,3,3,3h3.7c1.6,0,3-1.3,3-3V5.5c0-1.6-1.3-3-3-3H7.1z"/>
	</g>
</g>
</svg>
