<!-- Generator: Adobe Illustrator 17.1.0, SVG Export Plug-In  -->
<svg version="1.1"
	 xmlns="http://www.w3.org/2000/svg" xmlns:xlink="http://www.w3.org/1999/xlink" xmlns:a="http://ns.adobe.com/AdobeSVGViewerExtensions/3.0/"
	 x="0px" y="0px" width="21px" height="15.6px" viewBox="0 0 21 15.6" style="enable-background:new 0 0 21 15.6;"
	 xml:space="preserve">
<defs>
</defs>
<g>
	<g>
		<path style="fill:#8C8C8C;" d="M18.2,15.6H2.8c-1.5,0-2.8-1.2-2.8-2.8v-10C0,1.2,1.2,0,2.8,0h15.4C19.7,0,21,1.2,21,2.8v10
			C21,14.3,19.7,15.6,18.2,15.6z M2.8,2.5c-0.1,0-0.3,0.1-0.3,0.3v10c0,0.1,0.1,0.3,0.3,0.3h15.4c0.1,0,0.3-0.1,0.3-0.3v-10
			c0-0.1-0.1-0.3-0.3-0.3H2.8z"/>
	</g>
	<g>
		<path style="fill:#8C8C8C;" d="M10.5,9C10.3,9,10,9,9.8,8.9L0.6,3.1C0,2.8-0.2,2,0.2,1.4C0.6,0.8,1.3,0.6,1.9,1l8.5,5.3L18.2,1
			c0.6-0.4,1.4-0.2,1.8,0.3c0.4,0.6,0.2,1.4-0.3,1.8l-8.4,5.7C11,9,10.7,9,10.5,9z"/>
	</g>
</g>
</svg>
